G04 #@! TF.GenerationSoftware,KiCad,Pcbnew,(5.0.0)*
G04 #@! TF.CreationDate,2018-11-03T18:08:05-05:00*
G04 #@! TF.ProjectId,Neopixel_Breakout,4E656F706978656C5F427265616B6F75,rev?*
G04 #@! TF.SameCoordinates,Original*
G04 #@! TF.FileFunction,Soldermask,Top*
G04 #@! TF.FilePolarity,Negative*
%FSLAX46Y46*%
G04 Gerber Fmt 4.6, Leading zero omitted, Abs format (unit mm)*
G04 Created by KiCad (PCBNEW (5.0.0)) date 11/03/18 18:08:05*
%MOMM*%
%LPD*%
G01*
G04 APERTURE LIST*
%ADD10C,3.346400*%
%ADD11R,2.000000X2.000000*%
%ADD12O,2.000000X2.000000*%
%ADD13C,2.180000*%
%ADD14C,5.480000*%
%ADD15C,1.924000*%
%ADD16C,3.850000*%
G04 APERTURE END LIST*
D10*
G04 #@! TO.C,REF\002A\002A*
X144581880Y-73690480D03*
G04 #@! TD*
G04 #@! TO.C,REF\002A\002A*
X165298120Y-73715880D03*
G04 #@! TD*
G04 #@! TO.C,REF\002A\002A*
X144581880Y-133548120D03*
G04 #@! TD*
D11*
G04 #@! TO.C,A1*
X147320000Y-89683001D03*
D12*
X162560000Y-122703001D03*
X147320000Y-92223001D03*
X162560000Y-120163001D03*
X147320000Y-94763001D03*
X162560000Y-117623001D03*
X147320000Y-97303001D03*
X162560000Y-115083001D03*
X147320000Y-99843001D03*
X162560000Y-112543001D03*
X147320000Y-102383001D03*
X162560000Y-110003001D03*
X147320000Y-104923001D03*
X162560000Y-107463001D03*
X147320000Y-107463001D03*
X162560000Y-104923001D03*
X147320000Y-110003001D03*
X162560000Y-102383001D03*
X147320000Y-112543001D03*
X162560000Y-99843001D03*
X147320000Y-115083001D03*
X162560000Y-97303001D03*
X147320000Y-117623001D03*
X162560000Y-94763001D03*
X147320000Y-120163001D03*
X162560000Y-92223001D03*
X147320000Y-122703001D03*
X162560000Y-89683001D03*
X147320000Y-125243001D03*
X162560000Y-125243001D03*
D13*
X147320000Y-87143001D03*
X162560000Y-87143001D03*
X162560000Y-127783001D03*
X147320000Y-127783001D03*
G04 #@! TD*
D14*
G04 #@! TO.C,Conn1*
X158750000Y-81280000D03*
X150749000Y-81280000D03*
G04 #@! TD*
D15*
G04 #@! TO.C,Conn2*
X152400000Y-124460000D03*
X154940000Y-124460000D03*
X157480000Y-124460000D03*
D16*
X151130000Y-133096000D03*
X158750000Y-133096000D03*
G04 #@! TD*
D10*
G04 #@! TO.C,REF\002A\002A*
X165298120Y-133548120D03*
G04 #@! TD*
M02*
