G04 #@! TF.GenerationSoftware,KiCad,Pcbnew,(5.0.0)*
G04 #@! TF.CreationDate,2018-11-03T18:08:05-05:00*
G04 #@! TF.ProjectId,Neopixel_Breakout,4E656F706978656C5F427265616B6F75,rev?*
G04 #@! TF.SameCoordinates,Original*
G04 #@! TF.FileFunction,Legend,Top*
G04 #@! TF.FilePolarity,Positive*
%FSLAX46Y46*%
G04 Gerber Fmt 4.6, Leading zero omitted, Abs format (unit mm)*
G04 Created by KiCad (PCBNEW (5.0.0)) date 11/03/18 18:08:05*
%MOMM*%
%LPD*%
G01*
G04 APERTURE LIST*
%ADD10C,0.150000*%
%ADD11C,0.120000*%
G04 APERTURE END LIST*
D10*
G04 #@! TO.C,REF\002A\002A*
X148595080Y-73690480D02*
G75*
G03X148595080Y-73690480I-4013200J0D01*
G01*
X169311320Y-73715880D02*
G75*
G03X169311320Y-73715880I-4013200J0D01*
G01*
X148595080Y-133548120D02*
G75*
G03X148595080Y-133548120I-4013200J0D01*
G01*
D11*
G04 #@! TO.C,A1*
X148590000Y-90953001D02*
X148590000Y-88413001D01*
X148590000Y-88413001D02*
X145920000Y-88413001D01*
X145920000Y-90953001D02*
X145920000Y-129183001D01*
X145920000Y-85743001D02*
X145920000Y-88413001D01*
X161290000Y-88413001D02*
X163960000Y-88413001D01*
X161290000Y-88413001D02*
X161290000Y-126513001D01*
X161290000Y-126513001D02*
X163960000Y-126513001D01*
X148590000Y-90953001D02*
X145920000Y-90953001D01*
X148590000Y-90953001D02*
X148590000Y-126513001D01*
X148590000Y-126513001D02*
X145920000Y-126513001D01*
X145920000Y-129183001D02*
X163960000Y-129183001D01*
X163960000Y-129183001D02*
X163960000Y-85743001D01*
X163960000Y-85743001D02*
X145920000Y-85743001D01*
D10*
G04 #@! TO.C,REF\002A\002A*
X169311320Y-133548120D02*
G75*
G03X169311320Y-133548120I-4013200J0D01*
G01*
G04 #@! TO.C,A1*
X154225714Y-84769667D02*
X154701904Y-84769667D01*
X154130476Y-85055381D02*
X154463809Y-84055381D01*
X154797142Y-85055381D01*
X155654285Y-85055381D02*
X155082857Y-85055381D01*
X155368571Y-85055381D02*
X155368571Y-84055381D01*
X155273333Y-84198239D01*
X155178095Y-84293477D01*
X155082857Y-84341096D01*
G04 #@! TD*
M02*
