M48
;DRILL file {KiCad (5.0.0)} date 11/03/18 18:08:07
;FORMAT={-:-/ absolute / inch / decimal}
FMAT,2
INCH,TZ
T1C0.0300
T2C0.0315
T3C0.1598
%
G90
G05
M72
T1
X6.Y-4.9
X6.1Y-4.9
X6.2Y-4.9
T2
X5.8Y-3.5308
X5.8Y-3.6308
X5.8Y-3.7308
X5.8Y-3.8308
X5.8Y-3.9308
X5.8Y-4.0308
X5.8Y-4.1308
X5.8Y-4.2308
X5.8Y-4.3308
X5.8Y-4.4308
X5.8Y-4.5308
X5.8Y-4.6308
X5.8Y-4.7308
X5.8Y-4.8308
X5.8Y-4.9308
X6.4Y-3.5308
X6.4Y-3.6308
X6.4Y-3.7308
X6.4Y-3.8308
X6.4Y-3.9308
X6.4Y-4.0308
X6.4Y-4.1308
X6.4Y-4.2308
X6.4Y-4.3308
X6.4Y-4.4308
X6.4Y-4.5308
X6.4Y-4.6308
X6.4Y-4.7308
X6.4Y-4.8308
X6.4Y-4.9308
T3
X5.935Y-3.2
X6.25Y-3.2
T0
M30
